<svg xmlns="http://www.w3.org/2000/svg" version="1.1" xmlns:xlink="http://www.w3.org/1999/xlink" xmlns:svgjs="http://svgjs.dev/svgjs" width="2000" height="1409" viewBox="0 0 2000 1409"><g transform="matrix(1,0,0,1,-0.22897895860000972,-2.27258064516127)"><svg viewBox="0 0 352 248" data-background-color="#14293a" preserveAspectRatio="xMidYMid meet" height="1409" width="2000" xmlns="http://www.w3.org/2000/svg" xmlns:xlink="http://www.w3.org/1999/xlink"><g id="tight-bounds" transform="matrix(1,0,0,1,0.04030029671361035,0.4000000000000057)"><svg viewBox="0 0 351.9193994065728 247.2" height="247.2" width="351.9193994065728"><g><svg viewBox="0 0 351.9193994065728 247.2" height="247.2" width="351.9193994065728"><g><svg viewBox="0 0 181.43474178403756 247.2" height="247.2" width="181.43474178403756"><g id="textblocktransform"><svg viewBox="0 0 181.43474178403756 247.2" height="247.2" width="181.43474178403756" id="textblock"><g><svg viewBox="0 0 181.43474178403756 247.2" height="247.2" width="181.43474178403756"><g transform="matrix(1,0,0,1,0,0)"><svg width="181.43474178403756" viewBox="3.78 -31.95 23.45 31.95" height="247.2" data-palette-color="#e9e4de"><path d="M3.78 0L3.78-31.95 10.08-31.95 23.05-4.45 23.35-4.45 23.18-18.4 23.18-31.95 27.23-31.95 27.23 0 21.08 0 7.95-27.73 7.65-27.73 7.83-13.13 7.83 0 3.78 0Z" opacity="1" transform="matrix(1,0,0,1,0,0)" fill="#ffffff" class="wordmark-text-0" data-fill-palette-color="primary" id="text-0"></path></svg></g></svg></g></svg></g></svg></g><g transform="matrix(1,0,0,1,239.79272898403755,30.161107981220653)"><svg viewBox="0 0 112.12667042253521 186.87778403755868" height="186.87778403755868" width="112.12667042253521"><g><svg xmlns="http://www.w3.org/2000/svg" xmlns:xlink="http://www.w3.org/1999/xlink" version="1.1" x="0" y="0" viewBox="14 2 36 60" style="enable-background:new 0 0 64 64;" xml:space="preserve" height="186.87778403755868" width="112.12667042253521" class="icon-icon-0" data-fill-palette-color="accent" id="icon-0"><path d="M45 36H42V32H14V57C14 59.8 16.2 62 19 62H37C39.8 62 42 59.8 42 57V54H45C47.8 54 50 51.8 50 49V41C50 38.2 47.8 36 45 36M23.9 54.5L22.2 55.5 17.8 48 22.1 40.5 23.8 41.5 20.2 48zM27 55.3L25 54.7 29 40.7 30.9 41.2zM33.9 55.5L32.2 54.5 35.9 48 32.2 41.5 33.9 40.5 38.2 48zM48 49C48 50.7 46.7 52 45 52H42V38H45C46.7 38 48 39.3 48 41z" fill="#ffffff" data-fill-palette-color="accent"></path><g fill="#99abc1" data-fill-palette-color="accent"><path d="M38 30H36V28C36 26.9 35.1 26 34 26H20C17.8 26 16 24.2 16 22S17.8 18 20 18H34C35.1 18 36 17.1 36 16S35.1 14 34 14H20C17.8 14 16 12.2 16 10S17.8 6 20 6H34C35.1 6 36 5.1 36 4V2H38V4C38 6.2 36.2 8 34 8H20C18.9 8 18 8.9 18 10S18.9 12 20 12H34C36.2 12 38 13.8 38 16S36.2 20 34 20H20C18.9 20 18 20.9 18 22S18.9 24 20 24H34C36.2 24 38 25.8 38 28z" fill="#ffffff" data-fill-palette-color="accent"></path></g></svg></g></svg></g></svg></g><defs></defs></svg><rect width="351.9193994065728" height="247.2" fill="none" stroke="none" visibility="hidden"></rect></g></svg></g></svg>